<svg xmlns="http://www.w3.org/2000/svg" width="1200" height="675" viewBox="0 0 1200 675">
  <defs>
    <linearGradient id="g" x1="0" y1="0" x2="1" y2="1"><stop offset="0" stop-color="#ffffff"/><stop offset="1" stop-color="#dbeafe"/></linearGradient>
    <filter id="s" x="-20%" y="-20%" width="140%" height="140%"><feDropShadow dx="0" dy="24" stdDeviation="24" flood-color="#0f172a" flood-opacity="0.14"/></filter>
  </defs>
  <rect width="1200" height="675" rx="34" fill="url(#g)"/>
  <rect x="60" y="56" width="1080" height="563" rx="28" fill="#fff" filter="url(#s)"/>
  <circle cx="102" cy="98" r="8" fill="#ef4444"/><circle cx="130" cy="98" r="8" fill="#f59e0b"/><circle cx="158" cy="98" r="8" fill="#22c55e"/>
  <text x="88" y="170" font-family="Inter, Arial, sans-serif" font-size="28" font-weight="800" fill="#111827">Docy</text>
  <text x="88" y="220" font-family="Inter, Arial, sans-serif" font-size="46" font-weight="900" fill="#111827">Developer guides</text>
  <rect x="88" y="270" width="150" height="44" rx="10" fill="#2563eb"/>
  <text x="123" y="299" font-family="Inter, Arial, sans-serif" font-size="16" font-weight="800" fill="#fff">Get Started</text>
  <rect x="690" y="160" width="350" height="260" rx="22" fill="#f8fafc"/>
  <rect x="724" y="194" width="282" height="32" rx="8" fill="#2563eb" opacity="0.18"/>
  <rect x="724" y="246" width="216" height="20" rx="8" fill="#cbd5e1"/>
  <rect x="724" y="288" width="250" height="20" rx="8" fill="#e2e8f0"/>
  <rect x="724" y="348" width="96" height="38" rx="10" fill="#2563eb" opacity="0.9"/>
  <circle cx="942" cy="330" r="72" fill="#2563eb" opacity="0.16"/>
  <path d="M856 470c78-96 152-96 226 0" fill="none" stroke="#2563eb" stroke-width="18" stroke-linecap="round" opacity="0.38"/>
  <rect x="88" y="475" width="210" height="62" rx="16" fill="#f1f5f9"/>
  <rect x="326" y="475" width="210" height="62" rx="16" fill="#f1f5f9"/>
  <rect x="564" y="475" width="210" height="62" rx="16" fill="#f1f5f9"/>
</svg>
