<svg xmlns="http://www.w3.org/2000/svg" width="1280" height="720" viewBox="0 0 1280 720" role="img" aria-label="FinanceDesk preview">
  <defs>
    <linearGradient id="g" x1="0" y1="0" x2="1" y2="1">
      <stop offset="0" stop-color="rgb(219,234,105)" stop-opacity="0.95"/>
      <stop offset="1" stop-color="rgb(162,249,144)" stop-opacity="0.92"/>
    </linearGradient>
    <filter id="shadow" x="-20%" y="-20%" width="140%" height="140%">
      <feDropShadow dx="0" dy="24" stdDeviation="24" flood-color="#0f172a" flood-opacity="0.18"/>
    </filter>
  </defs>
  <rect width="1280" height="720" rx="0" fill="#ffffff"/>
  <circle cx="1040" cy="120" r="210" fill="url(#g)" opacity="0.16"/>
  <circle cx="190" cy="650" r="260" fill="url(#g)" opacity="0.10"/>
  <rect x="70" y="60" width="1140" height="600" rx="38" fill="#f8fafc" stroke="#e5e7eb" stroke-opacity="0.45" filter="url(#shadow)"/>
  <rect x="110" y="100" width="1060" height="58" rx="20" fill="#ffffff" opacity="0.94"/>
  <circle cx="145" cy="129" r="7" fill="#ef4444"/><circle cx="169" cy="129" r="7" fill="#f59e0b"/><circle cx="193" cy="129" r="7" fill="#22c55e"/>
  <text x="230" y="136" font-family="Inter, Arial, sans-serif" font-size="22" font-weight="800" fill="#111827">FinanceDesk</text>
  <text x="930" y="136" font-family="Inter, Arial, sans-serif" font-size="16" font-weight="700" fill="#667085">Business &amp; Services</text>
  <rect x="112" y="205" width="430" height="320" rx="28" fill="#ffffff" stroke="#e5e7eb" stroke-opacity="0.55"/>
  <text x="152" y="272" font-family="Inter, Arial, sans-serif" font-size="54" font-weight="900" fill="#111827">FinanceDesk</text>
  <text x="152" y="322" font-family="Inter, Arial, sans-serif" font-size="25" font-weight="700" fill="#667085">Live preview layout</text>
  <rect x="152" y="374" width="150" height="48" rx="14" fill="url(#g)"/>
  <text x="188" y="405" font-family="Inter, Arial, sans-serif" font-size="17" font-weight="850" fill="#fff">Preview</text>
  <text x="152" y="472" font-family="Inter, Arial, sans-serif" font-size="18" font-weight="750" fill="#667085">Finance · Accounting · Advisory</text>
  <rect x="595" y="205" width="250" height="170" rx="26" fill="url(#g)" opacity="0.95"/>
  <rect x="875" y="205" width="210" height="170" rx="26" fill="#ffffff" stroke="#e5e7eb" stroke-opacity="0.55"/>
  <rect x="595" y="405" width="490" height="120" rx="28" fill="#ffffff" stroke="#e5e7eb" stroke-opacity="0.55"/>
  <rect x="635" y="445" width="190" height="18" rx="9" fill="rgb(219,234,105)" opacity="0.75"/>
  <rect x="635" y="481" width="350" height="16" rx="8" fill="#667085" opacity="0.30"/>
  <path d="M930 335 C980 250 1050 250 1090 310 C1140 385 1035 445 965 410 C925 390 905 375 930 335Z" fill="url(#g)" opacity="0.42"/>
  <text x="112" y="610" font-family="Inter, Arial, sans-serif" font-size="38" font-weight="900" fill="#111827">0元</text>
  <text x="210" y="610" font-family="Inter, Arial, sans-serif" font-size="22" font-weight="750" fill="#667085">Free ZIP download</text>
</svg>